<svg width="80" height="80" viewBox="0 0 80 80" fill="none" xmlns="http://www.w3.org/2000/svg">
<path d="M78.5014 17.5413L41.3112 0.284533C40.4908 -0.0948444 39.513 -0.0948444 38.6925 0.284533L1.49855 17.5413C0.576941 17.9701 0 18.8114 0 19.7318V60.7738C0 61.7008 0.58818 62.5519 1.52852 62.9742L38.6138 79.7262C39.0185 79.9076 39.4568 80 39.8951 80C40.3334 80 40.8167 79.901 41.2326 79.7031L43.5553 78.598C43.5553 78.598 43.5665 78.5914 43.574 78.5881L78.5277 61.9482C79.4343 61.5161 80 60.6814 80 59.7709V19.7285C80 18.8114 79.4231 17.9668 78.5014 17.538V17.5413ZM74.3804 58.293L45.0351 72.264V33.97C45.0351 33.0364 44.4394 32.1852 43.4954 31.763L23.6284 22.9053L40.0187 14.8526L57.1621 23.067L48.5942 27.3886C47.7213 27.8306 47.1818 28.6488 47.1818 29.5362V63.6241C47.1818 64.5082 47.7175 65.323 48.5867 65.7651C49.4558 66.2072 50.5236 66.2072 51.3965 65.7651L68.8995 56.8877C69.7687 56.4456 70.3081 55.6275 70.3081 54.7434V30.3642C70.3081 29.5065 69.8061 28.7115 68.9782 28.2595C68.1502 27.8076 67.1162 27.768 66.2471 28.1473L52.8051 34.0392V30.9646L64.3289 25.1552C65.2131 24.7098 65.7525 23.8785 65.7413 22.9812C65.7301 22.0839 65.1681 21.2625 64.2727 20.8336L41.3449 9.85145C40.4983 9.44568 39.4755 9.45227 38.6326 9.86464L16.278 20.8468C15.3714 21.2922 14.8169 22.1433 14.8394 23.0571C14.8619 23.9709 15.4538 24.8022 16.3791 25.2146L39.4193 35.4875V74.5238L5.61956 59.2596V21.2229L40 5.27252L74.3804 21.2229V58.293ZM64.6773 41.5674L52.7939 46.5488V39.2087C53.2621 39.2318 53.7454 39.1526 54.195 38.9547L64.6773 34.3592V41.5674ZM64.6773 47.0469V53.3116L52.7939 59.3388V51.6753C53.2621 51.705 53.7454 51.6325 54.1987 51.4411L64.6773 47.0469Z" fill="url(#paint0_linear_1838_1407)"/>
<path d="M11.7896 29.5231C10.9654 29.975 10.4634 30.7701 10.4634 31.6245V55.2449C10.4634 56.1488 11.0216 56.9801 11.9207 57.4123L29.2327 65.7883C29.656 65.9928 30.1206 66.0951 30.5851 66.0951C31.0797 66.0951 31.5742 65.9796 32.0163 65.752C32.8704 65.3066 33.3949 64.4984 33.3949 63.6209V57.2539C33.3949 55.8882 32.1361 54.7797 30.5851 54.7797C29.0341 54.7797 27.7754 55.8882 27.7754 57.2539V59.4378L16.0829 53.7801V35.6063L29.3413 41.3794C30.7312 41.9864 32.4171 41.4817 33.1064 40.2578C33.7958 39.0339 33.2226 37.5494 31.8327 36.9424L14.5207 29.4043C13.6515 29.0249 12.6175 29.0678 11.7933 29.5198L11.7896 29.5231Z" fill="#EE1E42"/>
<defs>
<linearGradient id="paint0_linear_1838_1407" x1="40" y1="0" x2="40" y2="80" gradientUnits="userSpaceOnUse">
<stop stop-color="#7F00C3"/>
<stop offset="1" stop-color="#EE1E42"/>
</linearGradient>
</defs>
</svg>
